<svg width="163" height="80" viewBox="0 0 163 80" fill="none" xmlns="http://www.w3.org/2000/svg">
<path d="M16.064 21.68C26.816 21.68 30.336 27.248 30.336 33.2C30.336 39.664 24.32 43.696 16.512 43.696H8.448V55.472C8.448 60.208 9.024 61.488 10.752 62H1.408C3.136 61.488 3.712 60.08 3.712 55.344V27.824C3.776 23.088 1.408 21.68 1.408 21.68H16.064ZM14.336 42.864C22.976 42.864 25.536 37.04 25.536 32.688C25.536 28.272 23.744 22.512 16.064 22.512H8.448V42.864H14.336Z" fill="white"/>
<path d="M148.832 39.472C155.232 41.968 161.248 44.528 161.248 51.056C161.248 58.224 154.464 62.576 147.68 62.576C139.04 62.576 134.688 57.648 132.96 54.704L136.8 52.464C136.8 52.464 139.232 62.064 147.744 62.064C153.248 62.064 157.472 58.544 157.472 53.936C157.472 48.176 150.432 45.488 145.568 43.504C138.784 40.816 134.432 38.384 134.432 32.304C134.432 25.584 140.704 21.296 147.424 21.296C151.584 21.296 155.872 22.896 159.648 26.992L156.256 29.36C156.256 29.36 153.056 21.808 146.656 21.808C142.24 21.808 138.016 24.944 138.016 29.808C138.016 35.248 143.968 37.424 148.832 39.472Z" fill="white"/>
<path d="M53.312 44H47.872C48.768 42.88 48.192 41.152 47.584 39.328C47.456 38.944 47.104 37.856 47.104 37.856H39.648C39.648 37.856 38.624 40.576 38.4 41.152C37.824 42.72 37.856 43.616 38.816 44H35.584C36.544 43.552 37.12 43.168 37.984 40.992C38.752 39.104 44.352 23.84 44.352 23.84H44.832C44.832 23.84 49.312 36.224 50.464 39.328C51.296 41.504 51.776 42.848 53.312 44ZM39.776 37.6H46.976C45.568 33.76 43.328 27.872 43.328 27.872L39.776 37.6ZM61.1348 32.736C64.3348 33.984 67.3428 35.264 67.3428 38.528C67.3428 42.112 63.9508 44.288 60.5588 44.288C56.2388 44.288 54.0628 41.824 53.1988 40.352L55.1188 39.232C55.1188 39.232 56.3348 44.032 60.5908 44.032C63.3428 44.032 65.4548 42.272 65.4548 39.968C65.4548 37.088 61.9348 35.744 59.5028 34.752C56.1108 33.408 53.9348 32.192 53.9348 29.152C53.9348 25.792 57.0708 23.648 60.4308 23.648C62.5108 23.648 64.6548 24.448 66.5428 26.496L64.8468 27.68C64.8468 27.68 63.2468 23.904 60.0468 23.904C57.8388 23.904 55.7268 25.472 55.7268 27.904C55.7268 30.624 58.7028 31.712 61.1348 32.736ZM76.416 32.736C79.616 33.984 82.624 35.264 82.624 38.528C82.624 42.112 79.232 44.288 75.84 44.288C71.52 44.288 69.344 41.824 68.48 40.352L70.4 39.232C70.4 39.232 71.616 44.032 75.872 44.032C78.624 44.032 80.736 42.272 80.736 39.968C80.736 37.088 77.216 35.744 74.784 34.752C71.392 33.408 69.216 32.192 69.216 29.152C69.216 25.792 72.352 23.648 75.712 23.648C77.792 23.648 79.936 24.448 81.824 26.496L80.128 27.68C80.128 27.68 78.528 23.904 75.328 23.904C73.12 23.904 71.008 25.472 71.008 27.904C71.008 30.624 73.984 31.712 76.416 32.736ZM87.4733 40.736C87.4733 43.072 87.7613 43.744 88.6253 44H83.9853C84.8493 43.744 85.1373 43.072 85.1373 40.736L85.1053 26.656C85.1053 24.736 84.7853 24.096 83.9853 23.84H88.6253C87.7933 24.096 87.4733 24.768 87.4733 26.784V40.736ZM100.351 23.52C106.047 23.52 110.655 28.192 110.655 33.952C110.655 39.712 106.047 44.384 100.351 44.384C94.687 44.384 90.079 39.712 90.079 33.952C90.079 28.192 94.687 23.52 100.351 23.52ZM100.383 44.064C104.671 44.064 108.159 39.52 108.159 33.92C108.159 28.32 104.671 23.776 100.383 23.776C96.095 23.776 92.607 28.32 92.607 33.92C92.607 39.52 96.095 44.064 100.383 44.064ZM126.862 23.84C126.062 24.096 125.71 24.768 125.71 26.784V44H125.326L113.71 26.912V40.736C113.71 43.104 113.998 43.744 114.862 44H112.238C113.102 43.744 113.39 43.104 113.39 40.736V27.232C113.39 25.408 112.11 23.84 112.11 23.84H114.734L125.23 39.392V26.816C125.23 24.896 124.654 24.096 123.854 23.84H126.862Z" fill="white"/>
</svg>
